<svg width="130" height="130" viewBox="0 0 130 130" fill="none" xmlns="http://www.w3.org/2000/svg">
<path d="M130 65C130 100.898 100.898 130 65 130C29.1015 130 0 100.898 0 65C0 29.1015 29.1015 0 65 0C100.898 0 130 29.1015 130 65Z" fill="url(#paint0_radial_2065_704)"/>
<circle cx="65" cy="65" r="50" fill="url(#paint1_radial_2065_704)"/>
<path d="M64.9999 4.33321C48.9101 4.33321 33.4793 10.7249 22.1021 22.1021C10.7249 33.4793 4.33322 48.9101 4.33322 64.9999C4.33322 81.0897 10.7249 96.5205 22.1021 107.898C33.4793 119.275 48.9101 125.667 64.9999 125.667L64.9999 124.471C49.2271 124.471 34.1004 118.205 22.9473 107.052C11.7943 95.8994 5.5286 80.7726 5.5286 64.9999C5.52861 49.2271 11.7943 34.1004 22.9473 22.9473C34.1004 11.7943 49.2271 5.5286 64.9999 5.5286L64.9999 4.33321Z" fill="#0B84FF"/>
<path d="M62.6163 51.2888C62.6163 52.5213 62.1663 53.5556 61.2663 54.3919C60.4113 55.2722 59.3539 55.7124 58.0939 55.7124L31.0946 55.7124C30.2397 55.7564 29.5197 55.9544 28.9347 56.3066C28.3947 56.6147 27.9897 56.9888 27.7197 57.4289C27.4497 57.8251 27.3147 58.2432 27.3147 58.6834C27.3147 59.1235 27.4497 59.5637 27.7197 60.0038C27.9897 60.3999 28.3947 60.7741 28.9347 61.1262C29.5197 61.4343 30.2397 61.6104 31.0946 61.6544H50.2641C53.414 61.7424 56.0015 62.4686 58.0264 63.8331C60.0964 65.1536 61.5588 66.6941 62.4138 68.4547C63.3138 70.1713 63.7638 71.9319 63.7638 73.7365C63.7638 75.4971 63.3138 77.2577 62.4138 79.0183C61.5138 80.7348 60.0514 82.2754 58.0264 83.6398C56.0015 84.9603 53.414 85.6205 50.2641 85.6205H49.8591C49.5891 85.6645 49.3191 85.6865 49.0492 85.6865H23.5348C22.2749 85.6865 21.1949 85.2684 20.2949 84.4321C19.44 83.5518 19.0125 82.4954 19.0125 81.263C19.0125 80.0306 19.4625 78.9963 20.3624 78.16C21.2174 77.2797 22.2749 76.8395 23.5348 76.8395H50.6691C51.5241 76.8835 52.2216 76.7295 52.7616 76.3774C53.3465 76.0252 53.774 75.6291 54.044 75.189C54.314 74.7048 54.449 74.2206 54.449 73.7365C54.449 73.4284 54.314 73.0102 54.044 72.482C53.774 71.9098 53.3465 71.4477 52.7616 71.0956C52.2216 70.7435 51.5241 70.5454 50.6691 70.5014H31.4996C28.3497 70.4133 25.7398 69.7091 23.6698 68.3887C21.6449 67.0682 20.1824 65.5717 19.2825 63.8991C18.4275 62.1825 18 60.444 18 58.6834C18 56.9668 18.45 55.2722 19.35 53.5996C20.2499 51.883 21.7124 50.3645 23.7373 49.0441C25.7623 47.7236 28.3497 47.0194 31.4996 46.9314H31.9046C32.1746 46.8874 65.8904 37 65.8904 37C65.8904 37 53.3113 43.4246 58.0939 46.8653C59.1829 47.6488 60.4113 47.3055 61.2663 48.1858C62.1663 49.0221 62.6163 50.0564 62.6163 51.2888Z" fill="white"/>
<path d="M62.6163 51.2888C62.6163 52.5213 62.1663 53.5556 61.2663 54.3919C60.4113 55.2722 59.3539 55.7124 58.0939 55.7124L31.0946 55.7124C30.2397 55.7564 29.5197 55.9544 28.9347 56.3066C28.3947 56.6147 27.9897 56.9888 27.7197 57.4289C27.4497 57.8251 27.3147 58.2432 27.3147 58.6834C27.3147 59.1235 27.4497 59.5637 27.7197 60.0038C27.9897 60.3999 28.3947 60.7741 28.9347 61.1262C29.5197 61.4343 30.2397 61.6104 31.0946 61.6544H50.2641C53.414 61.7424 56.0015 62.4686 58.0264 63.8331C60.0964 65.1536 61.5588 66.6941 62.4138 68.4547C63.3138 70.1713 63.7638 71.9319 63.7638 73.7365C63.7638 75.4971 63.3138 77.2577 62.4138 79.0183C61.5138 80.7348 60.0514 82.2754 58.0264 83.6398C56.0015 84.9603 53.414 85.6205 50.2641 85.6205H49.8591C49.5891 85.6645 49.3191 85.6865 49.0492 85.6865H23.5348C22.2749 85.6865 21.1949 85.2684 20.2949 84.4321C19.44 83.5518 19.0125 82.4954 19.0125 81.263C19.0125 80.0306 19.4625 78.9963 20.3624 78.16C21.2174 77.2797 22.2749 76.8395 23.5348 76.8395H50.6691C51.5241 76.8835 52.2216 76.7295 52.7616 76.3774C53.3465 76.0252 53.774 75.6291 54.044 75.189C54.314 74.7048 54.449 74.2206 54.449 73.7365C54.449 73.4284 54.314 73.0102 54.044 72.482C53.774 71.9098 53.3465 71.4477 52.7616 71.0956C52.2216 70.7435 51.5241 70.5454 50.6691 70.5014H31.4996C28.3497 70.4133 25.7398 69.7091 23.6698 68.3887C21.6449 67.0682 20.1824 65.5717 19.2825 63.8991C18.4275 62.1825 18 60.444 18 58.6834C18 56.9668 18.45 55.2722 19.35 53.5996C20.2499 51.883 21.7124 50.3645 23.7373 49.0441C25.7623 47.7236 28.3497 47.0194 31.4996 46.9314H31.9046C32.1746 46.8874 65.8904 37 65.8904 37C65.8904 37 53.3113 43.4246 58.0939 46.8653C59.1829 47.6488 60.4113 47.3055 61.2663 48.1858C62.1663 49.0221 62.6163 50.0564 62.6163 51.2888Z" fill="url(#paint2_linear_2065_704)"/>
<path d="M62.6163 51.2888C62.6163 52.5213 62.1663 53.5556 61.2663 54.3919C60.4113 55.2722 59.3539 55.7124 58.0939 55.7124L31.0946 55.7124C30.2397 55.7564 29.5197 55.9544 28.9347 56.3066C28.3947 56.6147 27.9897 56.9888 27.7197 57.4289C27.4497 57.8251 27.3147 58.2432 27.3147 58.6834C27.3147 59.1235 27.4497 59.5637 27.7197 60.0038C27.9897 60.3999 28.3947 60.7741 28.9347 61.1262C29.5197 61.4343 30.2397 61.6104 31.0946 61.6544H50.2641C53.414 61.7424 56.0015 62.4686 58.0264 63.8331C60.0964 65.1536 61.5588 66.6941 62.4138 68.4547C63.3138 70.1713 63.7638 71.9319 63.7638 73.7365C63.7638 75.4971 63.3138 77.2577 62.4138 79.0183C61.5138 80.7348 60.0514 82.2754 58.0264 83.6398C56.0015 84.9603 53.414 85.6205 50.2641 85.6205H49.8591C49.5891 85.6645 49.3191 85.6865 49.0492 85.6865H23.5348C22.2749 85.6865 21.1949 85.2684 20.2949 84.4321C19.44 83.5518 19.0125 82.4954 19.0125 81.263C19.0125 80.0306 19.4625 78.9963 20.3624 78.16C21.2174 77.2797 22.2749 76.8395 23.5348 76.8395H50.6691C51.5241 76.8835 52.2216 76.7295 52.7616 76.3774C53.3465 76.0252 53.774 75.6291 54.044 75.189C54.314 74.7048 54.449 74.2206 54.449 73.7365C54.449 73.4284 54.314 73.0102 54.044 72.482C53.774 71.9098 53.3465 71.4477 52.7616 71.0956C52.2216 70.7435 51.5241 70.5454 50.6691 70.5014H31.4996C28.3497 70.4133 25.7398 69.7091 23.6698 68.3887C21.6449 67.0682 20.1824 65.5717 19.2825 63.8991C18.4275 62.1825 18 60.444 18 58.6834C18 56.9668 18.45 55.2722 19.35 53.5996C20.2499 51.883 21.7124 50.3645 23.7373 49.0441C25.7623 47.7236 28.3497 47.0194 31.4996 46.9314H31.9046C32.1746 46.8874 65.8904 37 65.8904 37C65.8904 37 53.3113 43.4246 58.0939 46.8653C59.1829 47.6488 60.4113 47.3055 61.2663 48.1858C62.1663 49.0221 62.6163 50.0564 62.6163 51.2888Z" fill="url(#paint3_linear_2065_704)" style="mix-blend-mode:color-dodge"/>
<path d="M76.4534 87.3371C76.3859 91.7416 55.8082 93 55.8082 93C55.8082 93 69.5004 89.6047 67.5437 84.234C66.8046 82.2057 64.9337 81.7912 63.8988 80.0746C62.8638 78.358 62.3013 76.3113 62.2113 73.9345L62.2113 50.1004C62.2113 48.868 62.6613 47.8557 63.5613 47.0634C64.5062 46.2271 65.6087 45.809 66.8687 45.809C69.5686 46.0291 71.0311 47.4595 71.256 50.1004V73.4064C71.301 74.4627 71.526 75.365 71.931 76.1133C72.336 76.8175 72.786 77.3897 73.281 77.8299C73.776 78.226 74.271 78.5341 74.766 78.7542C75.3059 78.9302 75.8459 79.0183 76.3859 79.0183C76.9259 79.0183 77.4659 78.9302 78.0059 78.7542C78.5459 78.5341 79.0633 78.226 79.5583 77.8299C80.0533 77.3897 80.5033 76.8175 80.9083 76.1133C81.3133 75.365 81.5158 74.4627 81.5158 73.4064V50.1004C81.5158 48.868 81.9658 47.8557 82.8657 47.0634C83.8107 46.2271 84.9132 45.809 86.1731 45.809C88.8731 46.0291 90.358 47.4595 90.628 50.1004V73.4064C90.673 74.4627 90.898 75.343 91.303 76.0473C91.708 76.7955 92.158 77.3897 92.653 77.8299C93.148 78.226 93.6429 78.5341 94.1379 78.7542C94.6779 78.9302 95.2179 79.0183 95.7579 79.0183C96.2979 79.0183 96.8379 78.9302 97.3778 78.7542C97.9178 78.5341 98.4353 78.226 98.9303 77.8299C99.4253 77.3897 99.8753 76.8175 100.28 76.1133C100.685 75.365 100.888 74.4627 100.888 73.4064V50.1004C100.888 48.868 101.338 47.8557 102.238 47.0634C103.183 46.2271 104.285 45.809 105.545 45.809C108.245 46.0291 109.73 47.4595 110 50.1004V73.9345C110 76.3113 109.46 78.358 108.38 80.0746C107.345 81.7912 106.13 83.1777 104.735 84.234C103.385 85.2464 101.945 86.0166 100.415 86.5448C98.9303 87.073 97.4003 87.3371 95.8254 87.3371C94.2954 87.3371 92.7655 87.073 91.2355 86.5448C89.7505 86.0166 88.3106 85.2244 86.9156 84.168C86.6456 83.9919 86.3981 83.7939 86.1731 83.5738C85.9032 83.7939 85.6557 83.9919 85.4307 84.168C84.0357 85.2244 82.5732 86.0166 81.0433 86.5448C79.5583 87.073 78.2402 86.9968 76.4534 87.3371Z" fill="white"/>
<path d="M76.4534 87.3371C76.3859 91.7416 55.8082 93 55.8082 93C55.8082 93 69.5004 89.6047 67.5437 84.234C66.8046 82.2057 64.9337 81.7912 63.8988 80.0746C62.8638 78.358 62.3013 76.3113 62.2113 73.9345L62.2113 50.1004C62.2113 48.868 62.6613 47.8557 63.5613 47.0634C64.5062 46.2271 65.6087 45.809 66.8687 45.809C69.5686 46.0291 71.0311 47.4595 71.256 50.1004V73.4064C71.301 74.4627 71.526 75.365 71.931 76.1133C72.336 76.8175 72.786 77.3897 73.281 77.8299C73.776 78.226 74.271 78.5341 74.766 78.7542C75.3059 78.9302 75.8459 79.0183 76.3859 79.0183C76.9259 79.0183 77.4659 78.9302 78.0059 78.7542C78.5459 78.5341 79.0633 78.226 79.5583 77.8299C80.0533 77.3897 80.5033 76.8175 80.9083 76.1133C81.3133 75.365 81.5158 74.4627 81.5158 73.4064V50.1004C81.5158 48.868 81.9658 47.8557 82.8657 47.0634C83.8107 46.2271 84.9132 45.809 86.1731 45.809C88.8731 46.0291 90.358 47.4595 90.628 50.1004V73.4064C90.673 74.4627 90.898 75.343 91.303 76.0473C91.708 76.7955 92.158 77.3897 92.653 77.8299C93.148 78.226 93.6429 78.5341 94.1379 78.7542C94.6779 78.9302 95.2179 79.0183 95.7579 79.0183C96.2979 79.0183 96.8379 78.9302 97.3778 78.7542C97.9178 78.5341 98.4353 78.226 98.9303 77.8299C99.4253 77.3897 99.8753 76.8175 100.28 76.1133C100.685 75.365 100.888 74.4627 100.888 73.4064V50.1004C100.888 48.868 101.338 47.8557 102.238 47.0634C103.183 46.2271 104.285 45.809 105.545 45.809C108.245 46.0291 109.73 47.4595 110 50.1004V73.9345C110 76.3113 109.46 78.358 108.38 80.0746C107.345 81.7912 106.13 83.1777 104.735 84.234C103.385 85.2464 101.945 86.0166 100.415 86.5448C98.9303 87.073 97.4003 87.3371 95.8254 87.3371C94.2954 87.3371 92.7655 87.073 91.2355 86.5448C89.7505 86.0166 88.3106 85.2244 86.9156 84.168C86.6456 83.9919 86.3981 83.7939 86.1731 83.5738C85.9032 83.7939 85.6557 83.9919 85.4307 84.168C84.0357 85.2244 82.5732 86.0166 81.0433 86.5448C79.5583 87.073 78.2402 86.9968 76.4534 87.3371Z" fill="url(#paint4_linear_2065_704)"/>
<path d="M76.4534 87.3371C76.3859 91.7416 55.8082 93 55.8082 93C55.8082 93 69.5004 89.6047 67.5437 84.234C66.8046 82.2057 64.9337 81.7912 63.8988 80.0746C62.8638 78.358 62.3013 76.3113 62.2113 73.9345L62.2113 50.1004C62.2113 48.868 62.6613 47.8557 63.5613 47.0634C64.5062 46.2271 65.6087 45.809 66.8687 45.809C69.5686 46.0291 71.0311 47.4595 71.256 50.1004V73.4064C71.301 74.4627 71.526 75.365 71.931 76.1133C72.336 76.8175 72.786 77.3897 73.281 77.8299C73.776 78.226 74.271 78.5341 74.766 78.7542C75.3059 78.9302 75.8459 79.0183 76.3859 79.0183C76.9259 79.0183 77.4659 78.9302 78.0059 78.7542C78.5459 78.5341 79.0633 78.226 79.5583 77.8299C80.0533 77.3897 80.5033 76.8175 80.9083 76.1133C81.3133 75.365 81.5158 74.4627 81.5158 73.4064V50.1004C81.5158 48.868 81.9658 47.8557 82.8657 47.0634C83.8107 46.2271 84.9132 45.809 86.1731 45.809C88.8731 46.0291 90.358 47.4595 90.628 50.1004V73.4064C90.673 74.4627 90.898 75.343 91.303 76.0473C91.708 76.7955 92.158 77.3897 92.653 77.8299C93.148 78.226 93.6429 78.5341 94.1379 78.7542C94.6779 78.9302 95.2179 79.0183 95.7579 79.0183C96.2979 79.0183 96.8379 78.9302 97.3778 78.7542C97.9178 78.5341 98.4353 78.226 98.9303 77.8299C99.4253 77.3897 99.8753 76.8175 100.28 76.1133C100.685 75.365 100.888 74.4627 100.888 73.4064V50.1004C100.888 48.868 101.338 47.8557 102.238 47.0634C103.183 46.2271 104.285 45.809 105.545 45.809C108.245 46.0291 109.73 47.4595 110 50.1004V73.9345C110 76.3113 109.46 78.358 108.38 80.0746C107.345 81.7912 106.13 83.1777 104.735 84.234C103.385 85.2464 101.945 86.0166 100.415 86.5448C98.9303 87.073 97.4003 87.3371 95.8254 87.3371C94.2954 87.3371 92.7655 87.073 91.2355 86.5448C89.7505 86.0166 88.3106 85.2244 86.9156 84.168C86.6456 83.9919 86.3981 83.7939 86.1731 83.5738C85.9032 83.7939 85.6557 83.9919 85.4307 84.168C84.0357 85.2244 82.5732 86.0166 81.0433 86.5448C79.5583 87.073 78.2402 86.9968 76.4534 87.3371Z" fill="url(#paint5_linear_2065_704)" style="mix-blend-mode:color-dodge"/>
<defs>
<radialGradient id="paint0_radial_2065_704" cx="0" cy="0" r="1" gradientUnits="userSpaceOnUse" gradientTransform="translate(23.1609 23.1609) rotate(90) scale(65)">
<stop stop-color="#00D6FF"/>
<stop offset="1" stop-color="#A2C1C7" stop-opacity="0"/>
</radialGradient>
<radialGradient id="paint1_radial_2065_704" cx="0" cy="0" r="1" gradientUnits="userSpaceOnUse" gradientTransform="translate(65 65) rotate(90) scale(50)">
<stop offset="0.432692" stop-color="#2CA7FF" stop-opacity="0"/>
<stop offset="0.716346" stop-color="#2CA7FF"/>
<stop offset="1" stop-color="#2CA7FF" stop-opacity="0"/>
</radialGradient>
<linearGradient id="paint2_linear_2065_704" x1="18" y1="65" x2="110" y2="65" gradientUnits="userSpaceOnUse">
<stop stop-color="#007BFF"/>
<stop offset="1" stop-color="#004A99"/>
</linearGradient>
<linearGradient id="paint3_linear_2065_704" x1="18" y1="81.2105" x2="121.485" y2="82.4598" gradientUnits="userSpaceOnUse">
<stop stop-color="#4AB1F1"/>
<stop offset="0.328125" stop-color="#566CEC"/>
<stop offset="0.65625" stop-color="#D749AF"/>
<stop offset="1" stop-color="#FF7C51"/>
</linearGradient>
<linearGradient id="paint4_linear_2065_704" x1="18" y1="65" x2="110" y2="65" gradientUnits="userSpaceOnUse">
<stop stop-color="#007BFF"/>
<stop offset="1" stop-color="#004A99"/>
</linearGradient>
<linearGradient id="paint5_linear_2065_704" x1="18" y1="81.2105" x2="121.485" y2="82.4598" gradientUnits="userSpaceOnUse">
<stop stop-color="#4AB1F1"/>
<stop offset="0.328125" stop-color="#566CEC"/>
<stop offset="0.65625" stop-color="#D749AF"/>
<stop offset="1" stop-color="#FF7C51"/>
</linearGradient>
</defs>
</svg>
