<svg width="1012" height="800" viewBox="0 0 1012 800" fill="none" xmlns="http://www.w3.org/2000/svg">
<mask id="path-1-inside-1_2059_340" fill="white">
<path d="M1011.57 173.802C984.623 81.5451 932.454 -1.35524 860.936 -65.5621C789.419 -129.769 701.394 -172.732 606.777 -189.611C512.16 -206.49 414.71 -196.615 325.403 -161.099C236.095 -125.582 158.478 -65.8349 101.295 11.4134C44.111 88.6617 9.63238 180.342 1.7422 276.128C-6.14797 371.915 12.8638 468.001 56.636 553.566C100.408 639.13 167.202 710.773 249.494 760.424C331.786 810.076 426.307 835.764 522.411 834.595L522.366 830.919C426.947 832.08 333.099 806.575 251.393 757.277C169.687 707.979 103.369 636.846 59.9087 551.892C16.4482 466.937 -2.4281 371.534 5.40588 276.43C13.2399 181.326 47.4729 90.2987 104.249 13.6006C161.026 -63.0975 238.089 -122.419 326.761 -157.683C415.432 -192.946 512.189 -202.751 606.132 -185.992C700.075 -169.233 787.472 -126.576 858.48 -62.8267C929.488 0.922884 981.286 83.2328 1008.04 174.832L1011.57 173.802Z"/>
</mask>
<path d="M1011.57 173.802C984.623 81.5451 932.454 -1.35524 860.936 -65.5621C789.419 -129.769 701.394 -172.732 606.777 -189.611C512.16 -206.49 414.71 -196.615 325.403 -161.099C236.095 -125.582 158.478 -65.8349 101.295 11.4134C44.111 88.6617 9.63238 180.342 1.7422 276.128C-6.14797 371.915 12.8638 468.001 56.636 553.566C100.408 639.13 167.202 710.773 249.494 760.424C331.786 810.076 426.307 835.764 522.411 834.595L522.366 830.919C426.947 832.08 333.099 806.575 251.393 757.277C169.687 707.979 103.369 636.846 59.9087 551.892C16.4482 466.937 -2.4281 371.534 5.40588 276.43C13.2399 181.326 47.4729 90.2987 104.249 13.6006C161.026 -63.0975 238.089 -122.419 326.761 -157.683C415.432 -192.946 512.189 -202.751 606.132 -185.992C700.075 -169.233 787.472 -126.576 858.48 -62.8267C929.488 0.922884 981.286 83.2328 1008.04 174.832L1011.57 173.802Z" stroke="#0ED8F2" stroke-width="10" mask="url(#path-1-inside-1_2059_340)"/>
</svg>
