<svg width="1304" height="800" viewBox="0 0 1304 800" fill="none" xmlns="http://www.w3.org/2000/svg">
<mask id="path-1-inside-1_2059_339" fill="white">
<path d="M32.2415 236.047C-5.45786 351.408 -10.1976 475.004 18.5562 592.913C47.3099 710.823 108.415 818.361 194.988 903.417C281.562 988.472 390.165 1047.67 508.565 1074.33C626.964 1100.99 750.457 1094.07 865.133 1054.33C979.809 1014.6 1081.11 943.634 1157.63 849.432C1234.15 755.231 1282.85 641.534 1298.24 521.149C1313.63 400.764 1295.1 278.473 1244.74 168.051C1194.38 57.628 1114.19 -36.5395 1013.2 -103.845L1004.42 -90.6758C1102.96 -25.0044 1181.21 66.8765 1230.34 174.618C1279.48 282.359 1297.56 401.681 1282.54 519.142C1267.53 636.604 1220.01 747.54 1145.35 839.454C1070.69 931.368 971.843 1000.61 859.951 1039.38C748.06 1078.15 627.566 1084.91 512.041 1058.89C396.517 1032.87 290.551 975.118 206.08 892.128C121.608 809.137 61.9873 704.21 33.9317 589.164C5.87619 474.117 10.5008 353.523 47.2848 240.963L32.2415 236.047Z"/>
</mask>
<path d="M32.2415 236.047C-5.45786 351.408 -10.1976 475.004 18.5562 592.913C47.3099 710.823 108.415 818.361 194.988 903.417C281.562 988.472 390.165 1047.67 508.565 1074.33C626.964 1100.99 750.457 1094.07 865.133 1054.33C979.809 1014.6 1081.11 943.634 1157.63 849.432C1234.15 755.231 1282.85 641.534 1298.24 521.149C1313.63 400.764 1295.1 278.473 1244.74 168.051C1194.38 57.628 1114.19 -36.5395 1013.2 -103.845L1004.42 -90.6758C1102.96 -25.0044 1181.21 66.8765 1230.34 174.618C1279.48 282.359 1297.56 401.681 1282.54 519.142C1267.53 636.604 1220.01 747.54 1145.35 839.454C1070.69 931.368 971.843 1000.61 859.951 1039.38C748.06 1078.15 627.566 1084.91 512.041 1058.89C396.517 1032.87 290.551 975.118 206.08 892.128C121.608 809.137 61.9873 704.21 33.9317 589.164C5.87619 474.117 10.5008 353.523 47.2848 240.963L32.2415 236.047Z" stroke="#0ED8F2" stroke-width="40" stroke-dasharray="82 164 246 328" mask="url(#path-1-inside-1_2059_339)"/>
</svg>
