<svg width="102" height="98" viewBox="0 0 102 98" fill="none" xmlns="http://www.w3.org/2000/svg">
<g filter="url(#filter0_d_2065_685)">
<path d="M33.4805 41.7881V56.2109L20.9902 63.4229L8.5 56.2109L8.5 41.7881L20.9902 34.5762L33.4805 41.7881Z" stroke="#26D6EA"/>
<path d="M63.4805 41.7883V56.2112L50.9902 63.4231L38.5 56.2112V41.7883L50.9902 34.5764L63.4805 41.7883Z" fill="#00B4FF" stroke="#26D6EA"/>
<path d="M78.4805 15.7881V30.2109L65.9902 37.4229L53.5 30.2109V15.7881L65.9902 8.57617L78.4805 15.7881Z" stroke="#26D6EA"/>
<path d="M78.4805 67.7881V82.2109L65.9902 89.4229L53.5 82.2109V67.7881L65.9902 60.5762L78.4805 67.7881Z" stroke="#26D6EA"/>
<path d="M93.4805 41.7881V56.2109L80.9902 63.4229L68.5 56.2109V41.7881L80.9902 34.5762L93.4805 41.7881Z" stroke="#26D6EA"/>
</g>
<defs>
<filter id="filter0_d_2065_685" x="0" y="0" width="101.98" height="98" filterUnits="userSpaceOnUse" color-interpolation-filters="sRGB">
<feFlood flood-opacity="0" result="BackgroundImageFix"/>
<feColorMatrix in="SourceAlpha" type="matrix" values="0 0 0 0 0 0 0 0 0 0 0 0 0 0 0 0 0 0 127 0" result="hardAlpha"/>
<feOffset/>
<feGaussianBlur stdDeviation="4"/>
<feComposite in2="hardAlpha" operator="out"/>
<feColorMatrix type="matrix" values="0 0 0 0 0 0 0 0 0 0.960784 0 0 0 0 1 0 0 0 1 0"/>
<feBlend mode="normal" in2="BackgroundImageFix" result="effect1_dropShadow_2065_685"/>
<feBlend mode="normal" in="SourceGraphic" in2="effect1_dropShadow_2065_685" result="shape"/>
</filter>
</defs>
</svg>
